<svg width="542" height="542" viewBox="0 0 542 542" xmlns="http://www.w3.org/2000/svg"><title>pin</title><g fill="#221F20" fill-rule="evenodd"><path d="M282.812 468.79c-39.498-32.893-144.07-159.145-147.187-238.82-1.761-46.51 13.313-88.887 42.581-119.273 26.999-28.083 62.974-42.954 104.064-42.954 46.544 0 87.432 15.955 115.141 44.885 27.608 28.929 41.09 69.443 38.923 117.14-3.998 88.582-114.328 208.398-153.522 239.021M282.27-.007c-59.078 0-113.38 22.629-152.878 63.72-42.14 43.8-63.99 103.792-61.449 168.9 4.438 113.854 161.245 308.77 214.327 308.77 39.566 0 112.736-88.921 126.93-106.774 41.463-51.828 91.53-128.86 94.816-201.793 3.015-66.632-16.904-124.389-57.621-167.004C405.812 23.401 347.513-.007 282.27-.007"/><path d="M285.898 132.75c-35.094 0-63.515 28.42-63.515 63.515 0 35.094 28.42 63.516 63.515 63.516s63.516-28.422 63.516-63.516c0-35.095-28.421-63.516-63.516-63.516"/></g></svg>
